<?xml version="1.0" standalone="no"?>
<!DOCTYPE svg PUBLIC "-//W3C//DTD SVG 20010904//EN"
 "http://www.w3.org/TR/2001/REC-SVG-20010904/DTD/svg10.dtd">
<svg version="1.0" xmlns="http://www.w3.org/2000/svg"
 width="1024.000000pt" height="1024.000000pt" viewBox="0 0 1024.000000 1024.000000"
 preserveAspectRatio="xMidYMid meet">

<g transform="translate(0.000000,1024.000000) scale(0.100000,-0.100000)"
fill="#1368FE" stroke="none">
<path d="M5005 8192 c-128 -62 -199 -214 -161 -344 52 -179 257 -274 420 -194
104 51 170 153 169 262 -1 177 -112 293 -288 301 -72 4 -86 1 -140 -25z"/>
<path d="M4815 7436 c-110 -27 -231 -130 -288 -246 l-32 -65 -3 -357 -3 -358
-307 2 c-343 2 -367 -1 -477 -67 -109 -64 -181 -161 -206 -275 -6 -30 -9 -150
-7 -308 l3 -258 38 -76 c45 -92 117 -162 215 -210 l67 -33 215 -3 c207 -3 217
-3 243 18 39 31 53 86 34 132 -28 67 -47 72 -262 78 -208 6 -229 11 -279 70
-43 52 -48 88 -44 330 2 186 6 230 20 255 21 39 63 78 113 104 38 20 54 21
336 21 l297 0 4 -137 c3 -121 6 -144 27 -183 72 -138 277 -242 416 -211 186
42 290 164 302 357 10 143 -41 253 -153 330 -72 48 -138 64 -271 64 l-93 0 0
320 c0 355 1 363 63 400 65 40 138 16 172 -57 15 -31 17 -52 11 -134 -12 -174
15 -268 102 -361 84 -90 210 -131 335 -109 35 6 67 11 70 11 4 0 7 -165 7
-367 0 -339 2 -370 18 -396 38 -57 93 -73 151 -42 61 31 61 27 61 647 -1 685
-6 786 -49 873 -37 74 -118 159 -190 198 -83 46 -161 57 -396 56 -129 0 -229
-5 -260 -13z m144 -1286 c48 -35 61 -62 61 -129 0 -58 -23 -92 -83 -122 -28
-15 -52 -20 -77 -16 -41 5 -102 41 -120 71 -14 22 -26 185 -17 210 5 13 24 16
100 16 89 0 96 -2 136 -30z"/>
<path d="M6220 7109 c-175 -79 -221 -296 -94 -438 57 -64 110 -92 186 -98 83
-8 137 10 202 68 122 109 129 282 17 398 -82 85 -214 114 -311 70z"/>
<path d="M6196 6404 c-94 -30 -188 -114 -230 -203 -18 -40 -21 -68 -24 -224
-3 -163 -2 -181 17 -220 14 -28 35 -51 60 -65 35 -20 53 -22 200 -22 183 0
208 -7 235 -64 31 -67 9 -136 -56 -176 -32 -20 -53 -20 -971 -20 l-938 0 3
-467 3 -468 32 -67 c55 -116 156 -206 278 -248 52 -18 84 -20 301 -20 235 0
245 1 311 25 127 47 242 166 278 287 16 56 32 401 21 461 -4 21 -21 52 -40 72
-27 28 -41 35 -72 35 -43 0 -91 -27 -110 -62 -10 -16 -13 -78 -14 -214 0 -218
-5 -240 -71 -304 -60 -58 -87 -63 -319 -64 -175 -1 -210 2 -236 16 -52 28 -94
68 -114 109 -19 36 -20 60 -20 359 l0 320 840 0 c956 0 889 -6 1005 88 49 39
68 64 105 136 l45 88 3 298 c5 382 -7 433 -118 534 -73 66 -139 90 -255 93
-70 2 -115 -2 -149 -13z"/>
<path d="M1712 3597 c-79 -29 -141 -111 -142 -187 0 -95 36 -144 175 -236 61
-40 86 -63 94 -86 15 -42 14 -54 -5 -72 -22 -22 -63 -20 -146 9 -66 23 -73 24
-96 9 -13 -8 -30 -31 -38 -51 -13 -31 -13 -38 1 -59 48 -74 259 -104 362 -51
41 22 81 84 93 145 22 120 -22 195 -179 301 -93 64 -106 114 -33 135 25 7 42
4 86 -18 51 -25 57 -26 79 -11 50 33 56 87 14 133 -42 45 -188 67 -265 39z"/>
<path d="M2727 3600 c-54 -10 -81 -42 -151 -176 -58 -111 -86 -147 -86 -109 0
17 -112 248 -132 273 -14 17 -167 16 -190 -2 -17 -12 -18 -41 -18 -354 0 -391
-4 -372 85 -372 87 0 88 6 80 255 -5 133 -4 205 2 205 6 0 25 -33 43 -72 18
-40 51 -103 73 -140 31 -55 44 -68 64 -68 45 0 63 20 119 133 30 62 61 117 67
124 9 10 12 -36 12 -198 0 -197 1 -212 19 -225 30 -22 112 -18 136 6 19 19 20
33 20 354 0 363 0 366 -55 366 -13 0 -29 2 -37 4 -7 2 -30 0 -51 -4z"/>
<path d="M5323 3603 c-51 -10 -53 -21 -53 -385 0 -389 -7 -364 103 -356 82 6
87 15 87 154 0 73 4 115 11 120 7 4 15 1 19 -7 5 -8 45 -67 90 -131 93 -134
106 -142 220 -136 83 4 85 14 24 104 -151 219 -184 270 -183 284 0 8 49 85
109 170 127 182 127 184 8 178 -89 -4 -70 13 -199 -175 -50 -73 -94 -133 -97
-133 -4 0 -5 54 -4 121 4 135 0 164 -26 177 -23 12 -82 20 -109 15z"/>
<path d="M6593 3598 c-12 -6 -24 -22 -28 -36 -10 -39 6 -675 18 -689 12 -16
120 -17 148 -3 18 10 19 25 19 360 l0 349 -30 16 c-33 17 -95 19 -127 3z"/>
<path d="M3236 3575 c-13 -14 -41 -76 -62 -138 -135 -403 -174 -523 -174 -543
0 -20 7 -23 54 -29 30 -4 68 -4 85 0 27 6 33 15 58 81 l28 74 131 0 132 0 18
-66 c22 -84 42 -98 124 -92 33 2 65 9 71 15 9 9 -1 46 -34 140 -25 70 -74 215
-109 322 -34 107 -72 209 -83 225 -20 31 -22 31 -118 34 -93 3 -98 2 -121 -23z
m162 -282 c45 -129 46 -126 -38 -120 -39 2 -73 6 -76 9 -3 3 12 54 32 112 20
59 40 104 44 99 4 -4 21 -49 38 -100z"/>
<path d="M3839 3583 c-11 -13 -15 -80 -17 -317 -2 -166 0 -320 3 -343 7 -47
14 -51 95 -60 50 -5 60 -3 79 16 18 18 21 32 21 115 0 71 4 97 15 106 25 20
38 7 89 -93 27 -53 62 -109 78 -124 27 -26 36 -28 108 -28 64 0 82 4 100 20
19 17 21 27 17 67 -10 78 -19 88 -82 88 -49 0 -56 3 -69 28 -7 15 -16 41 -20
57 -6 27 -1 35 44 73 66 57 90 105 90 182 0 104 -37 165 -125 206 -47 22 -62
24 -231 24 -157 0 -183 -2 -195 -17z m342 -162 c33 -26 33 -115 1 -141 -21
-18 -134 -36 -152 -25 -6 3 -10 46 -10 96 l0 89 69 0 c53 0 74 -4 92 -19z"/>
<path d="M4522 3588 c-7 -7 -12 -38 -12 -69 0 -82 10 -89 126 -89 l94 0 0
-269 c0 -311 -3 -301 86 -301 97 0 94 -6 95 203 1 100 4 225 8 277 l6 95 45
-3 c24 -2 67 -1 96 3 42 5 53 11 63 31 16 35 14 86 -5 112 -15 22 -17 22 -303
22 -210 0 -290 -3 -299 -12z"/>
<path d="M6023 3590 c-12 -5 -26 -18 -32 -29 -7 -13 -11 -133 -11 -340 0 -308
1 -322 20 -341 19 -19 33 -20 213 -20 175 0 196 2 210 18 37 41 29 130 -14
152 -10 6 -67 10 -128 10 l-111 0 0 270 c0 256 -1 270 -19 280 -24 12 -97 12
-128 0z"/>
<path d="M6934 3586 c-18 -14 -19 -31 -23 -344 -2 -229 0 -336 8 -350 14 -27
66 -37 119 -22 l42 11 0 214 c0 118 3 215 8 214 4 0 70 -92 146 -204 77 -113
151 -213 165 -222 27 -18 86 -23 134 -10 l27 7 0 348 c0 257 -3 351 -12 360
-7 7 -38 12 -69 12 -89 0 -89 0 -89 -208 0 -200 2 -197 -72 -79 -85 132 -188
275 -204 281 -31 12 -160 6 -180 -8z"/>
<path d="M7725 3587 c-24 -19 -30 -140 -20 -460 l7 -246 31 -10 c47 -17 102
-13 128 8 l24 19 0 337 c0 322 -1 337 -19 351 -25 18 -126 18 -151 1z"/>
<path d="M8068 3588 c-15 -12 -17 -54 -20 -351 l-3 -339 24 -19 c16 -13 39
-19 78 -19 91 0 93 3 93 133 0 96 10 153 23 137 2 -3 36 -51 76 -107 39 -56
88 -116 107 -132 33 -30 39 -31 124 -31 87 0 90 1 90 23 0 14 -49 88 -126 190
l-126 166 23 33 c13 18 60 83 105 143 133 180 133 185 16 185 -93 0 -85 7
-199 -165 -117 -176 -113 -175 -113 -7 0 169 -2 172 -94 172 -34 0 -69 -6 -78
-12z"/>
<path d="M1176 2478 c-3 -13 -6 -89 -6 -170 l0 -148 25 0 c24 0 25 2 25 69 0
78 3 81 81 81 42 0 49 3 49 20 0 18 -7 20 -65 20 l-65 0 0 50 0 49 82 3 c75 3
81 5 84 26 4 22 2 22 -100 22 -99 0 -104 -1 -110 -22z"/>
<path d="M2223 2479 c-61 -26 -103 -88 -103 -151 0 -151 163 -221 273 -119 37
35 41 43 45 97 5 77 -14 125 -65 158 -49 32 -98 37 -150 15z m140 -69 c25 -28
33 -60 29 -115 -1 -11 -18 -35 -37 -52 -49 -46 -100 -46 -148 0 -44 41 -56 91
-32 136 39 76 134 92 188 31z"/>
<path d="M3717 2486 c-57 -16 -84 -38 -108 -91 -24 -51 -23 -89 0 -142 40 -87
168 -129 237 -78 15 12 25 25 23 30 -4 10 -11 10 -96 -1 -51 -6 -54 -5 -88 29
-29 29 -35 42 -35 79 0 53 26 108 60 126 16 8 41 11 70 7 78 -10 83 -10 87 1
5 14 -34 40 -72 47 -17 3 -51 0 -78 -7z"/>
<path d="M4757 2476 c-9 -13 -19 -36 -23 -50 -3 -14 -10 -29 -15 -32 -5 -3 -9
-12 -9 -21 0 -8 -18 -53 -40 -100 -47 -100 -48 -113 -16 -113 18 0 26 7 31 27
9 38 20 43 103 43 l72 0 17 -34 c10 -21 25 -36 39 -39 30 -5 30 2 0 72 -13 31
-43 103 -67 161 -47 111 -65 128 -92 86z m43 -81 c5 -14 19 -44 30 -67 11 -23
20 -43 20 -45 0 -2 -30 -3 -66 -3 -49 0 -65 3 -61 13 35 88 53 127 60 127 4 0
12 -11 17 -25z"/>
<path d="M5140 2475 c0 -22 4 -25 39 -25 26 0 41 -5 45 -16 3 -9 6 -74 6 -145
l0 -129 25 0 25 0 0 145 0 145 50 0 c42 0 50 3 50 19 0 27 -18 31 -136 31
l-104 0 0 -25z"/>
<path d="M5920 2480 c0 -16 7 -20 33 -20 17 0 43 -3 56 -7 l24 -6 -8 -143 -7
-144 26 0 26 0 0 140 c0 104 3 142 13 145 6 2 29 6 50 10 29 5 37 10 35 23 -3
15 -20 17 -126 20 -117 2 -122 2 -122 -18z"/>
<path d="M7395 2491 c-87 -21 -132 -94 -127 -203 2 -35 64 -104 111 -124 43
-19 107 -14 144 11 42 27 23 38 -53 30 -52 -5 -75 -3 -97 9 -42 21 -66 76 -58
127 14 84 87 127 164 97 25 -10 44 -12 55 -6 25 14 20 23 -28 46 -45 23 -61
25 -111 13z"/>
<path d="M1631 2321 c-3 -166 -3 -171 17 -171 17 0 21 9 27 50 6 47 9 50 37
50 22 0 41 -12 76 -48 29 -30 54 -47 65 -44 22 5 22 10 -8 54 -31 45 -31 46 0
78 49 51 43 134 -13 175 -21 15 -46 21 -112 23 l-85 4 -4 -171z m177 103 c31
-20 29 -67 -3 -100 -21 -21 -33 -25 -73 -22 l-47 3 -3 73 -3 73 53 -7 c29 -3
63 -13 76 -20z"/>
<path d="M2690 2326 l0 -166 25 0 25 0 0 104 c0 58 4 107 9 110 5 3 27 -23 50
-59 23 -35 46 -67 50 -70 8 -5 69 57 124 125 l28 35 -6 -122 -7 -123 25 0 c34
0 36 14 30 185 -6 139 -7 145 -27 145 -15 0 -40 -25 -84 -86 -34 -47 -68 -84
-74 -82 -11 4 -46 52 -93 130 -14 22 -29 34 -48 36 l-27 3 0 -165z"/>
<path d="M4117 2483 c-4 -3 -7 -78 -7 -165 0 -151 1 -158 20 -158 17 0 20 7
20 44 0 24 3 58 6 75 6 30 8 31 58 31 28 0 68 -3 89 -6 l37 -7 0 -68 c0 -66 1
-69 24 -69 l23 0 -1 163 c-1 159 -1 162 -23 165 -21 3 -22 -1 -25 -65 l-3 -68
-85 0 -85 0 -3 68 c-2 57 -6 67 -21 67 -10 0 -21 -3 -24 -7z"/>
<path d="M6474 2471 c-74 -45 -104 -123 -80 -205 23 -77 88 -121 167 -114 128
13 200 151 132 255 -50 77 -150 106 -219 64z m120 -35 c50 -21 76 -60 76 -116
0 -113 -128 -160 -209 -76 -17 18 -33 42 -33 52 -3 43 14 92 40 116 43 41 73
46 126 24z"/>
<path d="M7856 2403 c-73 -163 -105 -241 -100 -246 11 -11 42 7 55 31 8 15 17
29 21 32 3 3 44 5 90 5 l83 0 14 -32 c14 -31 38 -49 50 -38 7 8 -22 88 -81
223 -66 146 -77 148 -132 25z m86 -20 c9 -27 19 -63 23 -80 l7 -33 -56 0 c-64
0 -66 3 -38 77 11 26 22 56 25 66 10 28 21 20 39 -30z"/>
<path d="M8326 2459 c-3 -17 -6 -94 -6 -171 0 -139 0 -139 23 -136 19 3 22 10
25 51 3 44 5 47 31 47 21 0 39 -11 65 -40 37 -41 81 -66 90 -52 5 9 -7 32 -38
76 l-19 27 32 32 c33 35 41 80 21 132 -14 37 -80 65 -156 65 -61 0 -62 0 -68
-31z m129 -17 c47 -16 59 -30 59 -67 0 -51 -30 -75 -95 -75 -47 0 -49 1 -49
29 0 15 -3 49 -6 75 l-7 46 39 -1 c22 -1 48 -4 59 -7z"/>
<path d="M8806 2459 c-3 -17 -6 -91 -6 -164 l0 -133 66 -7 c60 -7 151 -1 162
10 2 2 2 11 -1 20 -5 12 -24 15 -92 15 l-85 0 0 50 0 49 68 3 c61 3 67 5 70
26 3 21 0 22 -67 22 -63 0 -71 2 -71 19 0 10 -3 32 -6 49 l-6 31 93 3 c80 3
94 6 97 21 3 15 -7 17 -106 17 l-109 0 -7 -31z"/>
</g>
</svg>
